<?xml version="1.0" encoding="UTF-8" standalone="no"?>

<svg
   class="background-svg"
   viewBox="0 0 200 200"
   width="100%"
   height="100%"
   preserveAspectRatio="xMidYMid meet"
   version="1.1"
   id="svg47"
   xmlns="http://www.w3.org/2000/svg"
   xmlns:svg="http://www.w3.org/2000/svg">
   <defs
      id="defs2">
      <filter
         id="glow"
         x="-0.018"
         y="-0.018"
         width="1.036"
         height="1.036">
         <feGaussianBlur
            stdDeviation="1.5"
            result="blur"
            id="feGaussianBlur1" />
         <feMerge
            id="feMerge2">
            <feMergeNode
               in="blur"
               id="feMergeNode1" />
            <feMergeNode
               in="SourceGraphic"
               id="feMergeNode2" />
         </feMerge>
      </filter>
   </defs>
   <rect
      width="100%"
      height="100%"
      fill="#000000"
      id="rect2"
      x="0"
      y="0"
      style="display:none" />
   <g
      stroke="gray"
      stroke-width="0.1"
      id="g43">
      <line
         x1="0"
         y1="0"
         x2="0"
         y2="200"
         id="line2" />
      <line
         x1="10"
         y1="0"
         x2="10"
         y2="200"
         id="line3" />
      <line
         x1="20"
         y1="0"
         x2="20"
         y2="200"
         id="line4" />
      <line
         x1="30"
         y1="0"
         x2="30"
         y2="200"
         id="line5" />
      <line
         x1="40"
         y1="0"
         x2="40"
         y2="200"
         id="line6" />
      <line
         x1="50"
         y1="0"
         x2="50"
         y2="200"
         id="line7" />
      <line
         x1="60"
         y1="0"
         x2="60"
         y2="200"
         id="line8" />
      <line
         x1="70"
         y1="0"
         x2="70"
         y2="200"
         id="line9" />
      <line
         x1="80"
         y1="0"
         x2="80"
         y2="200"
         id="line10" />
      <line
         x1="90"
         y1="0"
         x2="90"
         y2="200"
         id="line11" />
      <line
         x1="100"
         y1="0"
         x2="100"
         y2="200"
         id="line12" />
      <line
         x1="110"
         y1="0"
         x2="110"
         y2="200"
         id="line13" />
      <line
         x1="120"
         y1="0"
         x2="120"
         y2="200"
         id="line14" />
      <line
         x1="130"
         y1="0"
         x2="130"
         y2="200"
         id="line15" />
      <line
         x1="140"
         y1="0"
         x2="140"
         y2="200"
         id="line16" />
      <line
         x1="150"
         y1="0"
         x2="150"
         y2="200"
         id="line17" />
      <line
         x1="160"
         y1="0"
         x2="160"
         y2="200"
         id="line18" />
      <line
         x1="170"
         y1="0"
         x2="170"
         y2="200"
         id="line19" />
      <line
         x1="180"
         y1="0"
         x2="180"
         y2="200"
         id="line20" />
      <line
         x1="190"
         y1="0"
         x2="190"
         y2="200"
         id="line21" />
      <line
         x1="200"
         y1="0"
         x2="200"
         y2="200"
         id="line22" />
      <line
         x1="0"
         y1="0"
         x2="200"
         y2="0"
         id="line23" />
      <line
         x1="0"
         y1="10"
         x2="200"
         y2="10"
         id="line24" />
      <line
         x1="0"
         y1="20"
         x2="200"
         y2="20"
         id="line25" />
      <line
         x1="0"
         y1="30"
         x2="200"
         y2="30"
         id="line26" />
      <line
         x1="0"
         y1="40"
         x2="200"
         y2="40"
         id="line27" />
      <line
         x1="0"
         y1="50"
         x2="200"
         y2="50"
         id="line28" />
      <line
         x1="0"
         y1="60"
         x2="200"
         y2="60"
         id="line29" />
      <line
         x1="0"
         y1="70"
         x2="200"
         y2="70"
         id="line30" />
      <line
         x1="0"
         y1="80"
         x2="200"
         y2="80"
         id="line31" />
      <line
         x1="0"
         y1="90"
         x2="200"
         y2="90"
         id="line32" />
      <line
         x1="0"
         y1="100"
         x2="200"
         y2="100"
         id="line33" />
      <line
         x1="0"
         y1="110"
         x2="200"
         y2="110"
         id="line34" />
      <line
         x1="0"
         y1="120"
         x2="200"
         y2="120"
         id="line35" />
      <line
         x1="0"
         y1="130"
         x2="200"
         y2="130"
         id="line36" />
      <line
         x1="0"
         y1="140"
         x2="200"
         y2="140"
         id="line37" />
      <line
         x1="0"
         y1="150"
         x2="200"
         y2="150"
         id="line38" />
      <line
         x1="0"
         y1="160"
         x2="200"
         y2="160"
         id="line39" />
      <line
         x1="0"
         y1="170"
         x2="200"
         y2="170"
         id="line40" />
      <line
         x1="0"
         y1="180"
         x2="200"
         y2="180"
         id="line41" />
      <line
         x1="0"
         y1="190"
         x2="200"
         y2="190"
         id="line42" />
      <line
         x1="0"
         y1="200"
         x2="200"
         y2="200"
         id="line43" />
   </g>
   <g
      stroke-width="0.5"
      filter="url(#glow)"
      id="g47">
      <!-- animated glowing lines -->
      <line
         x1="40"
         y1="0"
         x2="40"
         y2="200"
         stroke="cyan"
         id="line44">
      </line>
      <line
         x1="0"
         y1="100"
         x2="200"
         y2="100"
         stroke="cyan"
         id="line45">
      </line>
      <line
         x1="120"
         y1="0"
         x2="120"
         y2="200"
         stroke="cyan"
         id="line46">
      </line>
      <line
         x1="65"
         y1="50"
         x2="200"
         y2="50"
         stroke="cyan"
         id="line47">
      </line>
   </g>
</svg>