<?xml version="1.0" encoding="UTF-8" standalone="no"?>
<!-- Created with Inkscape (http://www.inkscape.org/) -->

<svg
   width="256"
   height="256"
   viewBox="0 0 135.46666 135.46667"
   version="1.1"
   id="svg1"
   xml:space="preserve"
   xmlns="http://www.w3.org/2000/svg"
   xmlns:svg="http://www.w3.org/2000/svg">
        <defs
   id="defs1" />
        <g
   id="layer4">
            
            <path
   d="m 25.018159,115.73538 q 0,0.609 -0.584635,1.08401 -0.572455,0.47502 -1.327609,0.69426 -0.742974,0.21924 -1.437228,0.21924 -0.182699,0 -0.267958,-0.0122 v -0.41412 q 0.02436,0 0.706434,-0.10962 0.682074,-0.1218 1.144911,-0.41411 0.475016,-0.29232 0.475016,-0.65772 0,-0.43848 -0.657715,-0.43848 -0.889133,0 -1.680826,0.609 -0.791694,0.60899 -0.791694,1.27889 0,0.66989 0.828234,0.86477 0.182698,0.0487 0.243598,0.0974 0.0609,0.0487 0.0609,0.17052 0,0.1218 -0.121799,0.20706 -0.109619,0.0731 -0.523736,0.21924 -2.241101,0.76733 -2.241101,2.38726 0,0.32885 0.121799,0.56027 0.742974,-0.95003 1.924424,-1.54685 1.18145,-0.59681 2.277641,-0.59681 0.572456,0 0.913493,0.25578 0.341037,0.2436 0.341037,0.68207 0,0.68208 -0.633355,1.36415 -0.633355,0.68207 -1.644286,1.10837 -0.998752,0.43848 -1.997504,0.43848 -0.986572,0 -1.559027,-0.3654 -0.01218,0.0122 -0.109619,0.1827 -0.243598,0.4872 -0.414117,0.68207 l -0.401937,-0.17051 q 0.08526,-0.34104 0.499376,-1.0353 -0.560275,-0.63335 -0.560275,-1.41286 0,-0.7917 0.633355,-1.49813 0.645534,-0.71862 1.790445,-1.18145 -0.572455,-0.47502 -0.572455,-0.98657 0,-0.69426 0.730794,-1.41287 0.730794,-0.7308 1.778265,-1.18145 1.059651,-0.45066 1.985324,-0.45066 0.487196,0 0.779513,0.21924 0.292318,0.20706 0.292318,0.56027 z m -2.557779,4.93286 q -0.718614,0 -1.680826,0.5481 -0.950032,0.54809 -1.546847,1.30325 0.487196,0.54809 1.376328,0.54809 0.901313,0 1.753906,-0.57245 0.864773,-0.58464 0.864773,-1.25453 0,-0.26796 -0.207059,-0.41412 -0.207058,-0.15834 -0.560275,-0.15834 z m 6.589316,0.32886 0.292317,0.2436 q -0.292317,0.66989 -0.937852,1.07183 -0.645535,0.40194 -1.25453,0.40194 -0.596815,0 -0.998751,-0.37758 -0.389757,-0.37758 -0.389757,-1.03529 0,-0.65772 0.572455,-1.42505 0.572455,-0.76733 1.473768,-1.26671 0.913493,-0.49938 1.790445,-0.49938 0.121799,0 0.365397,0.0244 l -0.03654,0.47502 q -1.339789,0.0609 -2.228922,0.81605 -0.876953,0.75516 -0.876953,1.60775 0,0.35322 0.219238,0.57246 0.219239,0.21923 0.572456,0.21923 0.560275,0 1.437228,-0.82823 z m 9.147096,0.14616 0.255778,0.2436 q -0.694254,1.24235 -1.595567,1.24235 -0.365397,0 -0.572455,-0.19488 -0.194878,-0.20706 -0.194878,-0.53592 0,-0.34103 0.401936,-1.15709 0.401937,-0.81605 0.426297,-1.24235 0.01218,-0.19488 -0.121799,-0.31667 -0.121799,-0.1218 -0.341037,-0.1218 -0.219239,0 -0.450657,0.10962 -0.219238,0.0974 -0.438476,0.32885 -0.207058,0.23142 -0.389757,0.45066 -0.170519,0.21924 -0.389757,0.62117 -0.207058,0.40194 -0.353217,0.6699 -0.255778,0.49937 -0.730794,1.49813 l -0.730794,-0.25578 q 0,-0.0365 0.401937,-1.37633 0.401936,-1.33979 0.401936,-1.59557 0,-0.25578 -0.121799,-0.36539 -0.121799,-0.1218 -0.304497,-0.1218 -0.548096,0 -1.522488,1.36415 -0.962212,1.36414 -1.230169,2.32636 l -0.694255,-0.23142 q 0.0609,-0.64554 0.572456,-2.31418 0.511555,-1.68083 0.864772,-2.28982 l 0.548096,0.19487 q -0.377577,0.84042 -0.523736,1.42505 -0.146159,0.57246 -0.255778,1.23017 1.047472,-1.49812 1.753906,-2.09494 0.706434,-0.609 1.278889,-0.609 0.621175,0 0.621175,0.62118 0,0.2436 -0.219238,0.96221 -0.207058,0.71862 -0.328857,1.13273 1.680826,-2.70394 3.008435,-2.70394 0.328858,0 0.523736,0.20706 0.194878,0.19488 0.194878,0.59682 0,0.38976 -0.462836,1.30325 -0.450656,0.91349 -0.450656,1.15709 0,0.23142 0.09744,0.34104 0.09744,0.10961 0.243598,0.10961 0.316677,0 0.828233,-0.60899 z m 3.178961,-1.19363 q 0.669895,-0.0244 0.669895,0.54809 0,0.75516 -0.816054,1.49813 -0.803873,0.7308 -1.619927,0.7308 -0.767333,0 -0.767333,-1.0353 0,-0.81605 0.401936,-2.02186 0.414117,-1.21799 0.682075,-1.71736 l 0.548095,0.18269 q -0.316677,0.92568 -0.645534,2.26547 0.974392,-0.45066 1.546847,-0.45066 z m -0.194878,1.25453 q 0.07308,-0.15834 0.07308,-0.31668 -0.03654,-0.32886 -0.572455,-0.32886 -0.255778,0 -0.950033,0.21924 -0.09744,0.3654 -0.09744,0.65772 0,0.28013 0.133979,0.45065 0.146159,0.17052 0.377577,0.17052 0.243598,0 0.572455,-0.2436 0.328858,-0.25577 0.462837,-0.60899 z m 13.702374,0.57245 0.389756,0.31668 q -0.146158,0.41412 -0.499375,0.75516 -0.353218,0.35321 -0.767334,0.35321 -0.560276,0 -0.913493,-0.54809 -0.353217,-0.5481 -0.462836,-1.58339 -0.560275,0.609 -1.400688,1.15709 -0.840414,0.53592 -1.473768,0.53592 -0.633355,0 -0.998752,-0.4263 -0.365397,-0.4263 -0.365397,-1.09619 0,-1.52249 1.485948,-3.61743 1.485947,-2.09494 3.008435,-2.98408 l 0.328857,0.46284 q -1.388508,1.03529 -2.545599,2.7283 -1.15709,1.693 -1.15709,2.97189 0,0.47502 0.219238,0.74298 0.231418,0.25577 0.633355,0.25577 0.414116,0 1.14491,-0.47501 0.730794,-0.47502 1.096191,-0.88913 0.0609,-1.18146 0.560276,-2.39945 0.511555,-1.21799 1.20581,-1.98532 0.706434,-0.77951 1.315429,-0.77951 0.511556,0 0.511556,0.62117 0,0.62118 -0.913493,2.08277 -0.913492,1.4494 -1.814805,2.302 -0.02436,0.19487 -0.02436,0.31667 0,0.53592 0.207059,1.12055 0.219238,0.57246 0.572455,0.57246 0.304498,0 0.657715,-0.51156 z m 0.182698,-5.35915 q -0.401937,0 -0.889133,0.95003 -0.487196,0.93785 -0.621175,1.9975 0.755154,-0.90131 1.205811,-1.65646 0.462836,-0.76734 0.462836,-1.10837 0,-0.1827 -0.158339,-0.1827 z m 7.113071,5.87071 0.01218,0.29232 q -0.121799,0.0731 -1.108371,0.43847 -0.389757,2.32636 -1.144911,3.36166 -0.755153,1.03529 -1.851344,1.03529 -0.511556,0 -0.816054,-0.32886 -0.304497,-0.32886 -0.304497,-0.85259 0,-1.04747 0.962212,-1.96097 0.962212,-0.90131 2.569959,-1.42504 0.182698,-0.81606 0.657714,-2.30201 -0.816053,1.24235 -1.485947,1.68083 -0.657715,0.43848 -1.193631,0.43848 -0.535915,0 -0.816053,-0.29232 -0.267958,-0.29232 -0.267958,-0.77951 0,-0.80388 0.669895,-1.63211 0.669894,-0.84041 1.680826,-1.36415 1.023112,-0.53592 1.973144,-0.53592 l 0.09744,0.4263 q -1.351969,0.14616 -2.326361,0.95003 -0.962212,0.80388 -0.962212,1.54685 0,0.31668 0.194878,0.52374 0.194879,0.20705 0.475017,0.20705 0.414116,0 1.254529,-0.87695 0.840413,-0.87695 1.181451,-1.49813 l 0.450656,0.25578 q -0.669895,1.79045 -0.925673,3.02062 z m -1.753906,0.92567 q -1.059651,0.4872 -1.753905,1.16927 -0.694254,0.68208 -0.694254,1.24235 0,0.29232 0.170518,0.47502 0.170519,0.1827 0.426297,0.1827 0.511555,0 1.010931,-0.71862 0.499376,-0.71861 0.840413,-2.35072 z m 5.627113,-1.92442 0.280138,0.21924 q -0.377577,0.52373 -1.035292,0.87695 -0.657714,0.34104 -1.278889,0.34104 -0.621175,0 -0.998752,-0.3654 -0.377577,-0.3654 -0.377577,-0.96221 0,-1.12055 1.18145,-2.20456 1.19363,-1.08402 2.41162,-1.08402 0.803874,0 0.803874,0.63336 0,0.65771 -0.852593,1.32761 -0.840413,0.66989 -2.375081,1.21799 0.109619,0.28014 0.341038,0.43847 0.231418,0.15834 0.475016,0.15834 0.523735,0 1.425048,-0.59681 z m -2.302001,-0.3654 q 0.986572,-0.34104 1.693006,-0.85259 0.706434,-0.51156 0.706434,-0.93785 0,-0.15834 -0.121799,-0.28014 -0.121799,-0.1218 -0.280138,-0.1218 -0.572455,0 -1.242349,0.71861 -0.657715,0.70644 -0.755154,1.47377 z m 3.446893,0.88913 0.450657,-0.24359 q 0.03654,0.0487 0.09744,0.21923 0.121799,0.38976 0.316677,0.38976 0.426297,-0.0244 0.803874,-0.38976 0.389756,-0.36539 0.462836,-0.76733 -0.389757,0.0731 -0.633355,0.0731 -0.243598,0 -0.450656,-0.0244 -0.194879,-0.0365 -0.401937,-0.1218 -0.438476,-0.17052 -0.438476,-0.85259 0,-0.69426 0.718614,-1.43723 0.718614,-0.74297 1.680826,-0.74297 0.511556,0 0.779514,0.36539 0.267957,0.3654 0.267957,1.27889 0,0.31668 -0.08526,0.96221 0.548096,-1.30324 0.572455,-2.4847 l 0.755154,0.13398 q 0,0.8526 -0.535915,2.58214 -0.523736,1.72955 -0.828234,2.20456 l -0.767333,-0.14615 q 0.365397,-0.95004 0.365397,-2.11931 0,-1.16927 -0.170519,-1.53466 -0.182698,-0.40194 -0.608995,-0.40194 -0.414117,0 -0.803873,0.28014 -0.377577,0.28013 -0.389757,0.65771 -0.01218,0.37758 0.267958,0.58464 0.292317,0.19487 0.633354,0.25577 0.925673,0.1827 0.925673,0.46284 0,0.23142 -0.450656,0.73079 -0.450657,0.49938 -1.047472,0.92568 -0.584635,0.41411 -0.901313,0.41411 -0.304497,0 -0.462836,-0.29231 -0.146159,-0.28014 -0.146159,-0.52374 0,-0.2436 0.02436,-0.43848 z m 7.027801,-5.39569 q 0.584635,-0.69426 1.339789,-1.04747 0.755153,-0.3654 1.364148,-0.3654 0.621175,0 0.986572,0.32886 0.377577,0.31667 0.377577,0.84041 0,0.86477 -1.096191,1.79045 l -0.791693,0.66989 q -1.20581,1.02311 -1.632107,1.8757 -0.08526,0.17052 -0.182698,0.31668 l -0.462837,-0.20706 q 0.243598,-0.86477 1.985324,-2.64303 0.584635,-0.59682 0.755154,-0.84042 0.170518,-0.25578 0.170518,-0.52373 0,-0.57246 -0.584635,-0.57246 -0.742974,0 -1.412868,0.4872 -0.657715,0.48719 -0.925673,1.43723 l -0.462836,-0.0609 q 0,-0.7917 0.572456,-1.48595 z m -0.828234,5.76109 q 0,-0.23142 0.158339,-0.37758 0.170519,-0.14615 0.401937,-0.14615 0.243598,0 0.377577,0.12179 0.133979,0.10962 0.133979,0.32886 0,0.20706 -0.170519,0.3654 -0.158339,0.15834 -0.401937,0.15834 -0.499376,0 -0.499376,-0.45066 z"
   id="text16-1"
   style="font-size:12.1799px;font-family:'Marck Script';-inkscape-font-specification:'Marck Script';text-align:center;text-anchor:middle;fill:#f2f2f2;stroke-width:1.52248;stroke-linecap:round;stroke-linejoin:round;stroke-opacity:0.547414"
   transform="rotate(-10.198195)"
   aria-label="Есть Идея?" /><path
   d="m 23.377702,84.370323 h 1.808677 v 8.81945 q 0,0.671794 0.473701,1.145495 0.473701,0.473701 1.136882,0.473701 h 6.071985 v 1.808676 h -6.071985 q -0.938789,0 -1.722549,-0.456475 -0.775147,-0.465088 -1.240235,-1.240235 -0.456476,-0.78376 -0.456476,-1.731162 z m 14.564151,0 h 2.265152 l 4.383887,12.247322 H 42.653024 L 41.318049,92.931391 H 37.89879 l 0.654568,-1.808677 h 2.110122 l -1.584744,-4.375274 -3.582902,9.870205 h -1.937868 z m 8.027078,10.912347 6.950484,-9.103671 h -6.950484 v -1.808676 h 9.534308 v 1.3522 l -6.93326,9.103671 h 6.898809 v 1.791451 h -9.499857 z m 13.125821,-10.912347 3.358971,4.642269 3.341745,-4.642269 h 2.204862 l -4.616431,6.399269 v 5.848053 h -1.860353 v -5.848053 l -4.642269,-6.399269 z m 16.18335,0 3.582902,10.04246 3.574289,-10.04246 h 1.937868 L 79.989274,96.617645 H 77.724122 L 73.340235,84.370323 Z m 10.64535,0 h 1.817289 v 12.247322 h -1.817289 z m 4.228855,0 h 6.450946 q 0.852662,0 1.541681,0.404799 0.68902,0.404799 1.093819,1.085205 0.413411,0.680407 0.413411,1.524456 v 0.800985 q 0,1.197172 -0.689019,1.817289 0.611505,0.396187 0.887113,0.947402 0.275612,0.542603 0.275612,1.360814 v 1.352201 q 0,0.809598 -0.413416,1.481392 -0.404799,0.671794 -1.093819,1.076593 -0.689019,0.396186 -1.524456,0.396186 h -6.941872 z m 6.959098,10.430033 q 0.499539,0 0.852662,-0.335897 0.353122,-0.34451 0.353122,-0.826823 v -1.352201 q 0,-0.482314 -0.353122,-0.826824 -0.353123,-0.344509 -0.861275,-0.344509 h -4.099666 v -1.808677 h 3.600127 q 0.508152,0 0.869887,-0.327284 0.370348,-0.335897 0.370348,-0.809598 v -0.78376 q 0,-0.499539 -0.370348,-0.852662 -0.361735,-0.353122 -0.869887,-0.353122 h -4.633657 v 8.621357 z m 5.167645,-10.430033 h 9.49986 v 1.808676 h -7.68257 v 8.621357 h 7.68257 v 1.817289 h -9.49986 z m 2.85082,4.969553 h 6.64904 v 1.808676 h -6.64904 z"
   id="text15"
   style="font-size:17.6389px;font-family:Anta;-inkscape-font-specification:Anta;text-align:center;text-anchor:middle;fill:#1682da;stroke-width:0.52916666;stroke-linecap:round;stroke-linejoin:round;stroke-opacity:1;stroke:none;paint-order:stroke markers fill;stroke-dasharray:none;fill-opacity:1"
   aria-label="LAZY VIBE" />
        </g>
        
        <g
   id="g10">
            <path
   id="path2"
   style="display:inline;fill:#d5f6ff;fill-opacity:1;stroke-width:0.506659"
   d="m 73.199219,20.779297 c -1.357664,0.07777 -1.653681,1.936842 -0.812974,2.79003 0.77913,0.815167 1.59386,1.598689 2.420396,2.36622 -8.385417,-2.741515 -17.892631,-1.699307 -25.502183,2.758287 -6.572654,3.756104 -11.698913,10.188608 -13.341564,17.633459 -0.791974,3.285647 -0.843356,6.678073 -0.914046,10.038256 0.0036,1.101713 -0.814462,1.974952 -0.801135,3.08439 -0.03423,1.564726 -0.106185,3.381036 1.05173,4.601165 0.691786,0.782567 1.711404,1.182488 2.725948,1.321943 0.142153,2.97356 -0.130709,6.014445 0.587012,8.927903 0.948059,3.14804 3.816137,5.897384 7.224127,5.928429 4.319244,0.195699 8.646093,0.09481 12.967004,0.03694 1.74403,-0.02185 3.482957,-0.570894 4.808191,-1.729901 1.725087,-1.309073 2.899233,-3.291608 3.166101,-5.44645 0.261616,-1.430437 0.308468,-2.887499 0.472174,-4.330201 0.565392,-0.164451 0.831236,0.08387 0.787109,0.669922 0.405316,2.876314 0.572477,6.107328 2.668063,8.363913 1.623616,1.819559 4.127317,2.699123 6.536195,2.504215 4.277454,0.03299 8.571623,0.250906 12.83795,-0.123728 3.035576,-0.541997 5.571268,-3.000488 6.494902,-5.90065 0.560168,-2.207676 0.427069,-4.513814 0.534395,-6.771808 0.01259,-0.684272 0.01629,-1.368988 0.05545,-2.052411 1.692913,-0.232069 3.390836,-1.384556 3.674096,-3.168208 0.6515,-2.154957 0.0282,-4.983263 -2.176143,-5.979745 -0.375472,-0.178903 -0.901358,-0.182745 -0.699124,-0.744625 0.02101,-5.27884 -1.163501,-10.569288 -3.593461,-15.266126 -0.07409,-0.354604 -0.942911,-1.269608 -0.330031,-1.078376 0.991402,0.168487 2.101271,0.677334 3.06208,0.183853 1.087814,-0.674059 0.958502,-2.295669 0.136828,-3.135439 -1.552784,-2.204675 -3.163138,-4.579393 -5.602166,-5.872811 -1.736635,-0.698137 -3.624214,-0.15828 -5.350985,0.284133 0.01795,-1.444241 0.389522,-3.085594 -0.431479,-4.38049 -0.904166,-1.160909 -2.37539,-1.551461 -3.572846,-2.297228 -2.792442,-1.406542 -5.721782,-2.657704 -8.806612,-3.220719 -0.09129,0.0052 -0.184492,-0.0093 -0.275,0.0059 z" />
        </g>
        <g
   id="layer1"
   style="display:inline">
            <g
   id="g2"><path
     style="display:inline;fill:#ffe6d5;fill-opacity:1;stroke:#ffffff;stroke-width:0.529167;stroke-linecap:round;stroke-linejoin:round;stroke-dasharray:none;stroke-opacity:1;paint-order:stroke markers fill"
     d="M 37.247296,58.436599 68.035174,60.851335 96.046109,58.436599 88.198218,39.480927 53.788235,34.228877 Z"
     id="path5" /><path
     id="path8"
     style="display:inline;fill:#041e51;fill-opacity:1;stroke-width:0.506659"
     d="m 73.52006,22.378479 c -0.08395,0.08395 1.26391,1.419285 2.771407,2.745569 1.28928,1.134291 3.618464,4.210517 3.373438,4.455542 -0.03481,0.03481 -0.842777,-0.295085 -1.795756,-0.733289 -6.060681,-2.786851 -12.310151,-3.529924 -18.715137,-2.22467 -7.84151,1.597996 -14.87074,6.376733 -18.608166,12.650907 -2.701868,4.535735 -3.710801,8.43083 -3.844727,14.839405 -0.06537,3.128289 -0.10679,3.590224 -0.401526,4.039546 2.715066,-1.722633 7.872236,-0.72662 8.212935,-1.363224 0.118978,-0.222312 0.480304,-1.469456 0.802535,-2.771407 0.32223,-1.301956 0.650538,-2.48336 0.730188,-2.62568 0.07964,-0.142316 0.739153,-0.676367 1.465544,-1.186491 2.565968,-1.802008 5.5291,-4.990301 7.893058,-8.493538 0.491823,-0.728848 0.964375,-1.324984 1.050065,-1.324984 0.08569,0 0.236314,0.230963 0.334864,0.513664 0.320586,0.919631 2.380007,4.185077 3.642155,5.775358 3.279791,4.132465 7.60289,6.971875 11.495939,7.549927 0.648746,0.09633 0.818739,0.02846 1.835547,-0.732255 0.616314,-0.461095 1.058525,-0.894285 0.982885,-0.962215 -0.07563,-0.06793 -1.06263,-0.411853 -2.193147,-0.764295 -2.476401,-0.772021 -3.88882,-1.573176 -5.12992,-2.910416 -0.872451,-0.940039 -2.008309,-2.761932 -1.708423,-2.740402 0.07468,0.0054 0.383348,0.387448 0.685747,0.849044 0.707417,1.079827 2.287437,2.352847 3.897953,3.140377 1.299712,0.635553 4.307572,1.54128 5.119067,1.541508 0.54215,1.52e-4 3.220009,-2.578818 2.937805,-2.829285 -0.09462,-0.08398 -0.654531,-0.254033 -1.244368,-0.377754 -2.263031,-0.474674 -4.305908,-1.797163 -5.173328,-3.34915 -0.689953,-1.234454 -0.469461,-1.302931 0.509013,-0.157613 1.316213,1.540643 3.111946,2.424609 5.647717,2.780192 1.193633,0.167375 1.426964,0.05754 2.08101,-0.977718 0.501409,-0.79365 0.909778,-1.025978 1.028361,-0.584977 0.59651,2.218269 2.11777,5.675036 2.812232,6.390307 0.75518,0.777812 1.982323,1.786971 2.172477,1.786971 0.100743,0 0.06359,-0.140612 -0.08268,-0.312642 -0.969567,-1.140312 -1.963018,-3.393275 -2.273246,-5.155758 -0.21526,-1.222963 -0.321949,-4.296892 -0.15503,-4.46381 0.124227,-0.124228 0.190608,0.243889 0.504362,2.782776 0.364348,2.948323 1.394108,5.140627 3.018937,6.427515 0.377279,0.298807 0.720111,0.543119 0.761711,0.543119 0.04162,0 -0.191773,-0.542562 -0.518831,-1.206128 -0.327054,-0.663566 -0.746527,-1.93058 -0.931726,-2.815332 -0.748695,-3.576687 -0.548235,-4.113051 0.360184,-0.963766 0.294703,1.021677 0.827586,2.50121 1.183907,3.287655 0.531186,1.172404 0.659812,1.687371 0.715202,2.859774 0.04981,1.054286 0.144382,1.4884 0.359668,1.653129 0.321957,0.246349 6.868871,0.413847 7.233154,0.393328 l -0.0088,-2.364713 c -0.0192,-5.03487 -1.171925,-9.665618 -3.554812,-14.281887 -1.54153,-2.986338 -2.204977,-3.509723 -4.518071,-3.562573 l -0.983402,-0.02222 0.781347,-0.187068 c 0.898276,-0.215285 4.256164,0.180279 6.584094,0.775663 1.552488,0.397059 1.660881,0.408793 1.660881,0.183968 0,-0.372708 -1.900107,-2.964723 -3.137276,-4.279842 -1.460849,-1.552893 -2.17969,-1.990576 -3.268018,-1.990576 -0.959303,0 -3.089407,0.447954 -4.369242,0.918807 -0.568456,0.209141 -1.082666,0.331201 -1.142566,0.271301 -0.0599,-0.0599 -0.0031,-0.606877 0.12609,-1.21543 0.129143,-0.608552 0.240864,-1.82093 0.248564,-2.694409 0.01312,-1.490453 -0.01369,-1.609521 -0.433048,-1.934766 -0.577408,-0.44782 -3.247406,-1.852173 -5.170227,-2.719214 -1.592849,-0.718248 -5.515743,-2.018677 -5.65857,-1.875855 z M 55.214718,52.540462 c -1.689652,0 -4.289661,1.675049 -4.289661,2.763656 0,0.606592 0.317234,0.583379 1.761133,-0.127641 1.036845,-0.510569 1.355388,-0.580843 2.62878,-0.580843 1.284112,0 1.576816,0.06597 2.57607,0.580843 1.362755,0.702169 1.613338,0.722621 1.613338,0.129708 0,-1.104926 -2.575899,-2.765723 -4.28966,-2.765723 z m 25.314733,0.03979 c -1.688399,0.100674 -3.835705,1.209031 -4.310331,2.337842 -0.131263,0.312188 -0.201189,0.628616 -0.155029,0.703316 0.147858,0.239244 0.532113,0.148676 1.716691,-0.40566 1.9962,-0.934136 3.511342,-0.896981 5.623946,0.137459 1.115803,0.546345 1.379475,0.43016 1.122412,-0.494543 -0.277087,-0.996719 -1.826677,-2.054143 -3.308325,-2.257227 -0.216248,-0.02964 -0.448164,-0.03557 -0.689364,-0.02119 z" /></g>
            <g
   id="g1"><rect
     style="fill:#ffffff;fill-opacity:1;stroke:#ffffff;stroke-width:0.529167;stroke-linecap:round;stroke-linejoin:round;stroke-dasharray:none;stroke-opacity:1;paint-order:stroke markers fill"
     id="rect1"
     width="19.740463"
     height="15.212834"
     x="42.499348"
     y="60.247658" /><rect
     style="display:inline;fill:#ffffff;fill-opacity:1;stroke:#ffffff;stroke-width:0.529167;stroke-linecap:round;stroke-linejoin:round;stroke-dasharray:none;stroke-opacity:1;paint-order:stroke markers fill"
     id="rect1-8"
     width="19.740463"
     height="15.212834"
     x="72.70665"
     y="60.312267" /><path
     id="path1"
     style="display:inline;fill:#1682da;fill-opacity:1;stroke-width:0.506659"
     d="m 39.448238,57.234749 -0.420646,0.0078 c 0,0 -1.73697,1.78e-4 -2.580721,0.728121 -0.01991,0.01718 -0.04619,0.02864 -0.06821,0.04393 -0.04652,0.09018 -0.08955,0.179632 -0.155029,0.2682 -0.343877,0.46512 -0.402043,0.766752 -0.402043,2.092379 0,2.377699 0.507882,3.058864 2.591573,3.476274 l 1.162203,0.23306 0.0987,4.37131 c 0.08915,3.932017 0.140113,4.486305 0.503845,5.518009 0.923868,2.62049 2.77383,4.286898 5.168677,4.655013 0.561268,0.0863 4.07682,0.140043 7.812443,0.119373 6.616423,-0.03666 6.819205,-0.04829 7.826396,-0.447518 1.246365,-0.494034 2.986814,-2.040442 3.504695,-3.113505 0.585323,-1.212809 0.890437,-2.738539 1.053683,-5.268929 0.08418,-1.304819 0.230841,-2.449828 0.325561,-2.544548 0.09471,-0.09472 0.840136,-0.191837 1.656747,-0.216007 1.225643,-0.0363 1.523675,0.0092 1.707389,0.260449 0.122404,0.167395 0.359467,1.475904 0.5271,2.907833 0.167633,1.431929 0.460649,3.106729 0.650606,3.721737 0.644885,2.0879 1.849835,3.453532 3.763078,4.264856 0.947062,0.401607 1.130375,0.412878 7.898226,0.466638 7.848811,0.06235 8.41853,-0.004 10.140466,-1.177189 0.540473,-0.368235 1.354096,-1.161102 1.807642,-1.76165 1.18543,-1.569654 1.381123,-2.580445 1.484147,-7.660514 0.04588,-2.261036 0.08815,-4.131249 0.09405,-4.155819 0.0059,-0.02458 0.278057,-0.04444 0.604614,-0.04444 0.842741,0 2.1543,-0.483752 2.600875,-0.959114 0.450743,-0.479796 0.816639,-2.227627 0.651123,-3.109888 -0.285948,-1.524242 -0.981111,-2.221902 -2.441195,-2.451013 l -0.651123,-0.10232 v -5.16e-4 l -0.01034,0.0015 -3.063896,-0.0863 c 0.873854,0.02012 -5.067521,0.03335 -10.830863,0.0863 l -10.015371,0.09214 c -0.839654,0.168048 -1.023123,0.282943 -1.421657,0.547609 -0.520642,0.321982 -1.038598,0.830535 -1.273824,1.251087 -0.386084,0.690262 -0.425733,0.710834 -1.540991,0.797884 -1.799053,0.140426 -2.061171,0.03244 -2.631881,-1.086239 -0.232734,-0.456205 -0.594076,-0.787108 -1.157552,-1.059883 -0.807264,-0.390787 -0.958545,-0.397821 -10.238652,-0.479041 -5.180643,-0.04534 -15.045079,-0.115216 -15.1722,-0.155546 -0.02684,-0.0085 0.261047,-0.02079 0.44235,-0.03152 z m 17.362248,4.266407 c 1.259771,0.0094 2.121764,0.02997 2.281514,0.05994 0.698706,0.131078 1.563717,0.825075 1.982825,1.590601 0.264242,0.482648 0.306441,1.124928 0.306441,4.670516 0,3.888636 -0.02126,4.150821 -0.391707,4.843115 -0.506262,0.946099 -1.476705,1.791082 -2.329057,2.027783 -0.752736,0.209061 -11.175495,0.228893 -12.203906,0.02325 -1.210499,-0.242046 -2.043729,-1.021488 -2.477885,-2.318205 -0.281136,-0.839685 -0.256156,-8.295406 0.03049,-9.126058 0.133877,-0.387949 0.501898,-0.821075 0.988053,-1.162203 l 0.77463,-0.543636 6.369637,-0.05684 c 1.751626,-0.01573 3.409195,-0.01766 4.668966,-0.0083 z m 30.04106,5.16e-4 c 1.257287,0.0099 2.119966,0.03174 2.284099,0.06253 0.961901,0.180456 1.945655,1.201836 2.171443,2.254643 0.248197,1.15731 0.248207,6.849913 0,8.007263 -0.254697,1.187613 -1.075448,2.289426 -2.014347,2.704744 -0.656772,0.290521 -1.333392,0.33891 -5.394503,0.38654 -6.917721,0.08113 -8.171672,-0.107703 -9.173083,-1.380794 -0.856258,-1.088577 -0.944718,-1.695532 -0.886768,-6.110222 0.05093,-3.880433 0.07762,-4.167638 0.430465,-4.640543 0.206889,-0.277279 0.64961,-0.665349 0.983402,-0.861963 0.57065,-0.336119 0.985618,-0.360675 6.946863,-0.414445 1.743479,-0.01573 3.395142,-0.01768 4.652429,-0.0078 z" /></g>
            <g
   id="g6">
                <circle
   style="fill:#041e51;fill-opacity:1;stroke-width:1.5875;stroke-linecap:round;stroke-linejoin:round;stroke-opacity:0.547414"
   id="path4"
   cx="53.04044"
   cy="68.12867"
   r="4.102941" />
                <circle
   style="fill:#ffffff;stroke-width:1.5875;stroke-linecap:round;stroke-linejoin:round;stroke-opacity:0.547414"
   id="path3"
   cx="52.577209"
   cy="66.143387"
   r="1.4227941" />
            </g>
            <g
   id="g7">
                <circle
   style="fill:#041e51;fill-opacity:1;stroke-width:1.5875;stroke-linecap:round;stroke-linejoin:round;stroke-opacity:0.547414"
   id="circle4"
   cx="81.529411"
   cy="68.12867"
   r="4.102941" />
                <circle
   style="fill:#ffffff;stroke-width:1.5875;stroke-linecap:round;stroke-linejoin:round;stroke-opacity:0.547414"
   id="circle3"
   cx="79.643387"
   cy="66.639709"
   r="1.4227941" />
            </g>
        </g>
    </svg>
